<?xml version="1.0" standalone="no"?>
<!DOCTYPE svg PUBLIC "-//W3C//DTD SVG 20010904//EN"
 "http://www.w3.org/TR/2001/REC-SVG-20010904/DTD/svg10.dtd">
<svg version="1.0" xmlns="http://www.w3.org/2000/svg"
 width="86.000000pt" height="86.000000pt" viewBox="0 0 86.000000 86.000000"
 preserveAspectRatio="xMidYMid meet">
<metadata>
Created by potrace 1.11, written by Peter Selinger 2001-2013
</metadata>
<g transform="translate(0.000000,86.000000) scale(0.100000,-0.100000)"
fill="#000000" stroke="none">
<path d="M305 841 c-91 -31 -124 -52 -185 -117 -126 -135 -153 -300 -77 -463
45 -97 180 -209 272 -227 20 -3 35 -12 35 -20 0 -11 17 -14 70 -14 56 0 70 3
70 15 0 9 9 15 23 15 38 0 140 57 195 108 51 47 122 167 122 204 0 10 7 21 15
24 11 5 15 23 15 74 0 51 -4 69 -15 74 -8 3 -15 13 -15 23 0 64 -118 218 -207
270 -91 53 -223 67 -318 34z m245 -160 l45 -20 -61 0 c-55 -1 -62 -3 -67 -23
-4 -15 1 -30 14 -44 19 -21 20 -22 2 -57 -11 -22 -25 -37 -36 -37 -22 0 -47
23 -47 43 0 8 -7 20 -15 27 -8 7 -15 17 -15 22 0 6 -9 23 -21 39 -14 21 -29
29 -50 29 -58 0 -30 22 56 44 39 10 151 -3 195 -23z m132 -146 c2 -19 1 -35
-2 -35 -7 0 -30 61 -30 79 0 29 28 -10 32 -44z m-493 2 c-7 -11 -15 -32 -20
-46 -7 -25 -7 -24 -8 7 -1 38 15 75 30 67 5 -4 5 -14 -2 -28z m145 -132 c27
-57 46 -138 46 -196 0 -38 -1 -39 -27 -33 -51 12 -108 48 -111 71 -2 12 -10
27 -18 33 -18 16 -18 59 1 84 8 11 15 33 15 50 0 16 7 37 16 47 23 25 48 7 78
-56z m212 38 c3 -10 16 -42 30 -71 30 -65 30 -73 -1 -102 -15 -14 -25 -35 -25
-51 0 -21 -6 -28 -27 -33 -16 -4 -36 -9 -45 -12 -27 -8 -22 12 12 46 27 27 30
36 24 68 -4 20 -13 52 -20 70 -12 28 -11 37 3 67 18 38 40 46 49 18z"/>
</g>
</svg>
